<mxfile host="app.diagrams.net" modified="2023-09-10T16:08:51.102Z" agent="Mozilla/5.0 (X11; Linux x86_64) AppleWebKit/537.36 (KHTML, like Gecko) Chrome/115.0.0.0 Safari/537.36" etag="Lm0RfHMneHA56EWfMzRx" version="21.7.4" type="device">
  <diagram name="Page-1" id="tkPPQQnsqxNrWCFX6-H4">
    <mxGraphModel dx="1434" dy="774" grid="1" gridSize="10" guides="1" tooltips="1" connect="1" arrows="1" fold="1" page="1" pageScale="1" pageWidth="827" pageHeight="1169" math="0" shadow="0">
      <root>
        <mxCell id="0" />
        <mxCell id="1" parent="0" />
        <mxCell id="ShZJTzSeY4MzcGxXapGU-1" value="Discord Channel" style="rounded=1;whiteSpace=wrap;html=1;arcSize=32;" vertex="1" parent="1">
          <mxGeometry x="10" y="340" width="170" height="60" as="geometry" />
        </mxCell>
        <mxCell id="ShZJTzSeY4MzcGxXapGU-2" value="discord_bot" style="rounded=0;whiteSpace=wrap;html=1;" vertex="1" parent="1">
          <mxGeometry x="240" y="340" width="120" height="60" as="geometry" />
        </mxCell>
        <mxCell id="ShZJTzSeY4MzcGxXapGU-3" value="core" style="rounded=0;whiteSpace=wrap;html=1;" vertex="1" parent="1">
          <mxGeometry x="450" y="340" width="120" height="60" as="geometry" />
        </mxCell>
        <mxCell id="ShZJTzSeY4MzcGxXapGU-4" value="Ergast data" style="ellipse;shape=cloud;whiteSpace=wrap;html=1;" vertex="1" parent="1">
          <mxGeometry x="430" y="50" width="160" height="80" as="geometry" />
        </mxCell>
      </root>
    </mxGraphModel>
  </diagram>
</mxfile>
